<svg width="4893" height="906" viewBox="0 0 4893 906" fill="none" xmlns="http://www.w3.org/2000/svg">
<path d="M4682.95 277.537C4771.42 283.893 4817.82 362.674 4749.51 425.236C4745.74 428.693 4732.64 436.735 4732.59 436.765C4783.53 453.637 4805.79 496.968 4794.99 550.021C4784.19 603.073 4728.39 623.634 4678.45 627.401H4401.58V277.537H4682.95ZM4493.6 556.139H4650.77C4652.69 556.139 4662.75 554.411 4665.46 553.863C4691.09 548.603 4699.96 530.003 4695.68 504.654C4693.05 488.802 4674.29 480.245 4659.99 478.757H4493.6V556.139ZM4493.6 415.268H4649.24C4650.85 415.268 4660.34 412.679 4662.66 411.813C4688.99 402.317 4691.09 362.057 4666.29 349.972C4664.67 349.186 4654.66 345.577 4653.79 345.576H4493.6V415.268Z" fill="#333333"/>
<path d="M4682.95 277.537C4771.42 283.893 4817.82 362.674 4749.51 425.236C4745.74 428.693 4732.64 436.735 4732.59 436.765C4783.53 453.637 4805.79 496.968 4794.99 550.021C4784.19 603.073 4728.39 623.634 4678.45 627.401H4401.58V277.537H4682.95ZM4493.6 556.139H4650.77C4652.69 556.139 4662.75 554.411 4665.46 553.863C4691.09 548.603 4699.96 530.003 4695.68 504.654C4693.05 488.802 4674.29 480.245 4659.99 478.757H4493.6V556.139ZM4493.6 415.268H4649.24C4650.85 415.268 4660.34 412.679 4662.66 411.813C4688.99 402.317 4691.09 362.057 4666.29 349.972C4664.67 349.186 4654.66 345.577 4653.79 345.576H4493.6V415.268Z" stroke="black"/>
<path d="M4682.95 277.537C4771.42 283.893 4817.82 362.674 4749.51 425.236C4745.74 428.693 4732.64 436.735 4732.59 436.765C4783.53 453.637 4805.79 496.968 4794.99 550.021C4784.19 603.073 4728.39 623.634 4678.45 627.401H4401.58V277.537H4682.95ZM4493.6 556.139H4650.77C4652.69 556.139 4662.75 554.411 4665.46 553.863C4691.09 548.603 4699.96 530.003 4695.68 504.654C4693.05 488.802 4674.29 480.245 4659.99 478.757H4493.6V556.139ZM4493.6 415.268H4649.24C4650.85 415.268 4660.34 412.679 4662.66 411.813C4688.99 402.317 4691.09 362.057 4666.29 349.972C4664.67 349.186 4654.66 345.577 4653.79 345.576H4493.6V415.268Z" stroke="#FF0000"/>
<path d="M2261.11 277.537C2346.89 285.227 2383.25 327.608 2376.88 414.565C2372.14 479.548 2319.85 508.033 2261.03 512.741H2090.09V627.322H1998.09V277.537H2261.11ZM2090.09 440.068H2238.03C2245.02 440.068 2262.19 433.085 2267.94 428.531C2285.5 414.481 2286.36 380.895 2271.05 364.963C2264.76 358.368 2246.81 350.285 2238.03 350.285H2090.09V440.068Z" fill="#333333"/>
<path d="M2261.11 277.537C2346.89 285.227 2383.25 327.608 2376.88 414.565C2372.14 479.548 2319.85 508.033 2261.03 512.741H2090.09V627.322H1998.09V277.537H2261.11ZM2090.09 440.068H2238.03C2245.02 440.068 2262.19 433.085 2267.94 428.531C2285.5 414.481 2286.36 380.895 2271.05 364.963C2264.76 358.368 2246.81 350.285 2238.03 350.285H2090.09V440.068Z" stroke="black"/>
<path d="M2261.11 277.537C2346.89 285.227 2383.25 327.608 2376.88 414.565C2372.14 479.548 2319.85 508.033 2261.03 512.741H2090.09V627.322H1998.09V277.537H2261.11ZM2090.09 440.068H2238.03C2245.02 440.068 2262.19 433.085 2267.94 428.531C2285.5 414.481 2286.36 380.895 2271.05 364.963C2264.76 358.368 2246.81 350.285 2238.03 350.285H2090.09V440.068Z" stroke="#FF0000"/>
<path d="M119.724 308.037C163.547 265.97 273.655 267.153 330.531 272.405C365.42 275.625 412.489 288.928 445.414 297.727L445.418 367.767V369.248C414.93 358.416 379.726 346.253 344.768 341.69C314.431 337.728 232.545 329.309 206.053 345.789C181.887 360.78 191.6 390.211 216.154 399.469C262.308 416.814 309.862 413.329 358.425 423.338C371.614 426.054 383.99 427.407 391.835 429.606C440.241 443.184 465.495 449.699 467.048 508.48C468.989 581.466 420.252 614.585 354.052 626.436C297.123 638.936 259.676 637.681 187.682 623.75C155.43 617.509 128.272 604.341 110.979 595.18V524.177C129.447 530.528 177.706 549.267 200.354 555.685C237.185 566.117 315.358 573.312 346.591 552.358C366.169 539.253 374.972 507.623 354.926 493.104C336.357 479.686 291.599 479.765 268.212 476.938C228.43 472.15 179.635 467.442 141.947 454.257C88.2547 435.409 81.1092 345.157 119.724 308.037Z" fill="#333333"/>
<path d="M119.724 308.037C163.547 265.97 273.655 267.153 330.531 272.405C365.42 275.625 412.489 288.928 445.414 297.727L445.418 367.767V369.248C414.93 358.416 379.726 346.253 344.768 341.69C314.431 337.728 232.545 329.309 206.053 345.789C181.887 360.78 191.6 390.211 216.154 399.469C262.308 416.814 309.862 413.329 358.425 423.338C371.614 426.054 383.99 427.407 391.835 429.606C440.241 443.184 465.495 449.699 467.048 508.48C468.989 581.466 420.252 614.585 354.052 626.436C297.123 638.936 259.676 637.681 187.682 623.75C155.43 617.509 128.272 604.341 110.979 595.18V524.177C129.447 530.528 177.706 549.267 200.354 555.685C237.185 566.117 315.358 573.312 346.591 552.358C366.169 539.253 374.972 507.623 354.926 493.104C336.357 479.686 291.599 479.765 268.212 476.938C228.43 472.15 179.635 467.442 141.947 454.257C88.2547 435.409 81.1092 345.157 119.724 308.037Z" stroke="black"/>
<path d="M119.724 308.037C163.547 265.97 273.655 267.153 330.531 272.405C365.42 275.625 412.489 288.928 445.414 297.727L445.418 367.767V369.248C414.93 358.416 379.726 346.253 344.768 341.69C314.431 337.728 232.545 329.309 206.053 345.789C181.887 360.78 191.6 390.211 216.154 399.469C262.308 416.814 309.862 413.329 358.425 423.338C371.614 426.054 383.99 427.407 391.835 429.606C440.241 443.184 465.495 449.699 467.048 508.48C468.989 581.466 420.252 614.585 354.052 626.436C297.123 638.936 259.676 637.681 187.682 623.75C155.43 617.509 128.272 604.341 110.979 595.18V524.177C129.447 530.528 177.706 549.267 200.354 555.685C237.185 566.117 315.358 573.312 346.591 552.358C366.169 539.253 374.972 507.623 354.926 493.104C336.357 479.686 291.599 479.765 268.212 476.938C228.43 472.15 179.635 467.442 141.947 454.257C88.2547 435.409 81.1092 345.157 119.724 308.037Z" stroke="#FF0000"/>
<path d="M3980.5 277.577L3982.05 473.387C3985.78 585.22 4190.6 582.552 4190.6 471.818V277.577H4282.6V468.674C4275.53 595.578 4188.97 637.093 4073.2 633.56C3957.19 630.03 3893.79 581.527 3888.43 460.983C3885.71 400.555 3890.6 338.086 3888.43 277.498H3980.42L3980.5 277.577Z" fill="#333333"/>
<path d="M3980.5 277.577L3982.05 473.387C3985.78 585.22 4190.6 582.552 4190.6 471.818V277.577H4282.6V468.674C4275.53 595.578 4188.97 637.093 4073.2 633.56C3957.19 630.03 3893.79 581.527 3888.43 460.983C3885.71 400.555 3890.6 338.086 3888.43 277.498H3980.42L3980.5 277.577Z" stroke="black"/>
<path d="M3980.5 277.577L3982.05 473.387C3985.78 585.22 4190.6 582.552 4190.6 471.818V277.577H4282.6V468.674C4275.53 595.578 4188.97 637.093 4073.2 633.56C3957.19 630.03 3893.79 581.527 3888.43 460.983C3885.71 400.555 3890.6 338.086 3888.43 277.498H3980.42L3980.5 277.577Z" stroke="#FF0000"/>
<path d="M1169.62 470.206C1169.62 519.804 1212.36 551.121 1257.81 554.57C1317.41 559.045 1368.84 542.247 1378.01 476.248C1381.74 410.245 1378.79 343.695 1379.72 277.537H1470.17V477.976C1460.45 598.758 1371.1 636.898 1262.32 633.599C1158.66 630.458 1084.69 589.023 1077.63 476.403V277.537H1169.62V470.206Z" fill="#333333"/>
<path d="M1169.62 470.206C1169.62 519.804 1212.36 551.121 1257.81 554.57C1317.41 559.045 1368.84 542.247 1378.01 476.248C1381.74 410.245 1378.79 343.695 1379.72 277.537H1470.17V477.976C1460.45 598.758 1371.1 636.898 1262.32 633.599C1158.66 630.458 1084.69 589.023 1077.63 476.403V277.537H1169.62V470.206Z" stroke="black"/>
<path d="M1169.62 470.206C1169.62 519.804 1212.36 551.121 1257.81 554.57C1317.41 559.045 1368.84 542.247 1378.01 476.248C1381.74 410.245 1378.79 343.695 1379.72 277.537H1470.17V477.976C1460.45 598.758 1371.1 636.898 1262.32 633.599C1158.66 630.458 1084.69 589.023 1077.63 476.403V277.537H1169.62V470.206Z" stroke="#FF0000"/>
<path d="M663.521 288.187C723.665 265.585 811.311 272.807 876.501 282.224C898.856 285.416 920.678 292.073 942.857 295.622L945.005 295.956V370.188C932.878 368.142 886.834 361.164 875.254 359.357C814.337 349.94 709.754 328.986 669.583 391.614C638.582 440.038 652.025 515.219 703.771 543.236C734.073 559.641 755.952 563.409 788.12 565.061C811.35 566.24 849.902 560.662 859.603 558.758C880.633 554.628 894.627 553.316 944.953 538.042V611.067C934.265 613.854 921.408 618.034 909.99 620.547C750.237 655.472 545.186 647.622 558.472 429.764C562.434 364.313 603.383 310.788 663.521 288.187Z" fill="#333333"/>
<path d="M663.521 288.187C723.665 265.585 811.311 272.807 876.501 282.224C898.856 285.416 920.678 292.073 942.857 295.622L945.005 295.956V370.188C932.878 368.142 886.834 361.164 875.254 359.357C814.337 349.94 709.754 328.986 669.583 391.614C638.582 440.038 652.025 515.219 703.771 543.236C734.073 559.641 755.952 563.409 788.12 565.061C811.35 566.24 849.902 560.662 859.603 558.758C880.633 554.628 894.627 553.316 944.953 538.042V611.067C934.265 613.854 921.408 618.034 909.99 620.547C750.237 655.472 545.186 647.622 558.472 429.764C562.434 364.313 603.383 310.788 663.521 288.187Z" stroke="black"/>
<path d="M663.521 288.187C723.665 265.585 811.311 272.807 876.501 282.224C898.856 285.416 920.678 292.073 942.857 295.622L945.005 295.956V370.188C932.878 368.142 886.834 361.164 875.254 359.357C814.337 349.94 709.754 328.986 669.583 391.614C638.582 440.038 652.025 515.219 703.771 543.236C734.073 559.641 755.952 563.409 788.12 565.061C811.35 566.24 849.902 560.662 859.603 558.758C880.633 554.628 894.627 553.316 944.953 538.042V611.067C934.265 613.854 921.408 618.034 909.99 620.547C750.237 655.472 545.186 647.622 558.472 429.764C562.434 364.313 603.383 310.788 663.521 288.187Z" stroke="#FF0000"/>
<path d="M3094.87 286.171C3155.01 263.569 3242.65 270.791 3307.84 280.208C3330.92 283.503 3353.38 290.491 3376.3 293.94L3376.38 293.86V368.177C3362.64 367.567 3318.18 359.152 3306.6 357.346C3245.68 347.929 3141.1 326.975 3100.93 389.604C3069.92 438.027 3083.37 513.208 3135.12 541.225C3165.42 557.625 3187.29 561.397 3219.46 563.049C3242.7 564.224 3257.49 558.729 3281.81 555.275C3313.93 548.115 3341.33 543.941 3376.3 536.909V609.052C3365.61 611.839 3352.75 616.018 3341.33 618.531C3181.58 653.456 2976.53 645.607 2989.82 427.748C2993.78 362.297 3034.73 308.773 3094.87 286.171Z" fill="#333333"/>
<path d="M3094.87 286.171C3155.01 263.569 3242.65 270.791 3307.84 280.208C3330.92 283.503 3353.38 290.491 3376.3 293.94L3376.38 293.86V368.177C3362.64 367.567 3318.18 359.152 3306.6 357.346C3245.68 347.929 3141.1 326.975 3100.93 389.604C3069.92 438.027 3083.37 513.208 3135.12 541.225C3165.42 557.625 3187.29 561.397 3219.46 563.049C3242.7 564.224 3257.49 558.729 3281.81 555.275C3313.93 548.115 3341.33 543.941 3376.3 536.909V609.052C3365.61 611.839 3352.75 616.018 3341.33 618.531C3181.58 653.456 2976.53 645.607 2989.82 427.748C2993.78 362.297 3034.73 308.773 3094.87 286.171Z" stroke="black"/>
<path d="M3094.87 286.171C3155.01 263.569 3242.65 270.791 3307.84 280.208C3330.92 283.503 3353.38 290.491 3376.3 293.94L3376.38 293.86V368.177C3362.64 367.567 3318.18 359.152 3306.6 357.346C3245.68 347.929 3141.1 326.975 3100.93 389.604C3069.92 438.027 3083.37 513.208 3135.12 541.225C3165.42 557.625 3187.29 561.397 3219.46 563.049C3242.7 564.224 3257.49 558.729 3281.81 555.275C3313.93 548.115 3341.33 543.941 3376.3 536.909V609.052C3365.61 611.839 3352.75 616.018 3341.33 618.531C3181.58 653.456 2976.53 645.607 2989.82 427.748C2993.78 362.297 3034.73 308.773 3094.87 286.171Z" stroke="#FF0000"/>
<path d="M2827.13 351.857H2690.69V627.322H2598.61V351.857H2462.17V277.537H2827.13V351.857Z" fill="#333333"/>
<path d="M2827.13 351.857H2690.69V627.322H2598.61V351.857H2462.17V277.537H2827.13V351.857Z" stroke="black"/>
<path d="M2827.13 351.857H2690.69V627.322H2598.61V351.857H2462.17V277.537H2827.13V351.857Z" stroke="#FF0000"/>
<path d="M1681.3 549.941H1897.46V627.322H1589.3V277.537H1681.3V549.941Z" fill="#333333"/>
<path d="M1681.3 549.941H1897.46V627.322H1589.3V277.537H1681.3V549.941Z" stroke="black"/>
<path d="M1681.3 549.941H1897.46V627.322H1589.3V277.537H1681.3V549.941Z" stroke="#FF0000"/>
<path d="M3594.58 549.941H3810.82V627.322H3502.58V277.537H3594.58V549.941Z" fill="#333333"/>
<path d="M3594.58 549.941H3810.82V627.322H3502.58V277.537H3594.58V549.941Z" stroke="black"/>
<path d="M3594.58 549.941H3810.82V627.322H3502.58V277.537H3594.58V549.941Z" stroke="#FF0000"/>
</svg>
